<mxfile host="app.diagrams.net" modified="2024-03-06T08:49:27.289Z" agent="Mozilla/5.0 (Windows NT 10.0; Win64; x64; rv:122.0) Gecko/20100101 Firefox/122.0" etag="CY6-k-KdkaofruAx_2vH" version="24.0.1" type="device">
  <diagram id="R2lEEEUBdFMjLlhIrx00" name="Page-1">
    <mxGraphModel dx="792" dy="1072" grid="1" gridSize="10" guides="1" tooltips="1" connect="1" arrows="1" fold="1" page="1" pageScale="1" pageWidth="850" pageHeight="1100" math="0" shadow="0" extFonts="Permanent Marker^https://fonts.googleapis.com/css?family=Permanent+Marker">
      <root>
        <mxCell id="0" />
        <mxCell id="1" parent="0" />
        <mxCell id="OF2-15ma23gHeTGtKy_F-2" value="Cars" style="rounded=0;whiteSpace=wrap;html=1;" vertex="1" parent="1">
          <mxGeometry x="40" y="80" width="120" height="60" as="geometry" />
        </mxCell>
        <mxCell id="OF2-15ma23gHeTGtKy_F-16" value="Customers" style="rounded=0;whiteSpace=wrap;html=1;" vertex="1" parent="1">
          <mxGeometry x="600" y="75" width="120" height="60" as="geometry" />
        </mxCell>
        <mxCell id="OF2-15ma23gHeTGtKy_F-17" value="Brands" style="rounded=0;whiteSpace=wrap;html=1;" vertex="1" parent="1">
          <mxGeometry x="250" y="530" width="120" height="60" as="geometry" />
        </mxCell>
        <mxCell id="OF2-15ma23gHeTGtKy_F-18" value="Models" style="rounded=0;whiteSpace=wrap;html=1;" vertex="1" parent="1">
          <mxGeometry x="1560" y="620" width="120" height="60" as="geometry" />
        </mxCell>
        <mxCell id="OF2-15ma23gHeTGtKy_F-19" value="Features" style="rounded=0;whiteSpace=wrap;html=1;" vertex="1" parent="1">
          <mxGeometry x="710" y="380" width="120" height="60" as="geometry" />
        </mxCell>
        <mxCell id="OF2-15ma23gHeTGtKy_F-20" value="Sales" style="rounded=0;whiteSpace=wrap;html=1;" vertex="1" parent="1">
          <mxGeometry x="1560" y="800" width="120" height="60" as="geometry" />
        </mxCell>
        <mxCell id="OF2-15ma23gHeTGtKy_F-21" value="TestDrives" style="rounded=0;whiteSpace=wrap;html=1;" vertex="1" parent="1">
          <mxGeometry x="580" y="300" width="120" height="60" as="geometry" />
        </mxCell>
        <mxCell id="OF2-15ma23gHeTGtKy_F-22" value="&lt;div&gt;Showrooms&lt;br&gt;&lt;/div&gt;" style="rounded=0;whiteSpace=wrap;html=1;" vertex="1" parent="1">
          <mxGeometry x="1400" y="510" width="120" height="60" as="geometry" />
        </mxCell>
        <mxCell id="OF2-15ma23gHeTGtKy_F-23" value="Employees" style="rounded=0;whiteSpace=wrap;html=1;" vertex="1" parent="1">
          <mxGeometry x="1190" y="500" width="120" height="60" as="geometry" />
        </mxCell>
        <mxCell id="OF2-15ma23gHeTGtKy_F-24" value="Financing" style="rounded=0;whiteSpace=wrap;html=1;" vertex="1" parent="1">
          <mxGeometry x="1290" y="68.75" width="120" height="60" as="geometry" />
        </mxCell>
        <mxCell id="OF2-15ma23gHeTGtKy_F-25" value="" style="edgeStyle=entityRelationEdgeStyle;fontSize=12;html=1;endArrow=ERmany;rounded=0;exitX=1;exitY=0.5;exitDx=0;exitDy=0;" edge="1" parent="1" source="OF2-15ma23gHeTGtKy_F-3" target="OF2-15ma23gHeTGtKy_F-16">
          <mxGeometry width="100" height="100" relative="1" as="geometry">
            <mxPoint x="220" y="670" as="sourcePoint" />
            <mxPoint x="560" y="83" as="targetPoint" />
          </mxGeometry>
        </mxCell>
        <mxCell id="OF2-15ma23gHeTGtKy_F-26" value="" style="edgeStyle=entityRelationEdgeStyle;fontSize=12;html=1;endArrow=ERmany;rounded=0;exitX=1;exitY=0.383;exitDx=0;exitDy=0;exitPerimeter=0;" edge="1" parent="1" source="OF2-15ma23gHeTGtKy_F-2" target="OF2-15ma23gHeTGtKy_F-3">
          <mxGeometry width="100" height="100" relative="1" as="geometry">
            <mxPoint x="200" y="83" as="sourcePoint" />
            <mxPoint x="580" y="90" as="targetPoint" />
          </mxGeometry>
        </mxCell>
        <mxCell id="OF2-15ma23gHeTGtKy_F-3" value="" style="rhombus;whiteSpace=wrap;html=1;" vertex="1" parent="1">
          <mxGeometry x="320" y="50" width="120" height="110" as="geometry" />
        </mxCell>
        <mxCell id="OF2-15ma23gHeTGtKy_F-28" value="" style="rhombus;whiteSpace=wrap;html=1;" vertex="1" parent="1">
          <mxGeometry x="70" y="340" width="120" height="110" as="geometry" />
        </mxCell>
        <mxCell id="OF2-15ma23gHeTGtKy_F-31" value="" style="edgeStyle=entityRelationEdgeStyle;fontSize=12;html=1;endArrow=ERmany;rounded=0;exitX=1;exitY=0.5;exitDx=0;exitDy=0;" edge="1" parent="1" source="OF2-15ma23gHeTGtKy_F-2" target="OF2-15ma23gHeTGtKy_F-28">
          <mxGeometry width="100" height="100" relative="1" as="geometry">
            <mxPoint x="120" y="250" as="sourcePoint" />
            <mxPoint x="200" y="190" as="targetPoint" />
          </mxGeometry>
        </mxCell>
        <mxCell id="OF2-15ma23gHeTGtKy_F-33" value="" style="edgeStyle=entityRelationEdgeStyle;fontSize=12;html=1;endArrow=ERmany;rounded=0;" edge="1" parent="1" source="OF2-15ma23gHeTGtKy_F-28" target="OF2-15ma23gHeTGtKy_F-17">
          <mxGeometry width="100" height="100" relative="1" as="geometry">
            <mxPoint x="170" y="610" as="sourcePoint" />
            <mxPoint x="260" y="560" as="targetPoint" />
          </mxGeometry>
        </mxCell>
        <mxCell id="OF2-15ma23gHeTGtKy_F-34" value="" style="edgeStyle=entityRelationEdgeStyle;fontSize=12;html=1;endArrow=ERmandOne;startArrow=ERmandOne;rounded=0;exitX=1;exitY=0.5;exitDx=0;exitDy=0;entryX=0.1;entryY=0.544;entryDx=0;entryDy=0;entryPerimeter=0;" edge="1" parent="1" source="OF2-15ma23gHeTGtKy_F-16" target="OF2-15ma23gHeTGtKy_F-36">
          <mxGeometry width="100" height="100" relative="1" as="geometry">
            <mxPoint x="470" y="590" as="sourcePoint" />
            <mxPoint x="570" y="490" as="targetPoint" />
          </mxGeometry>
        </mxCell>
        <mxCell id="OF2-15ma23gHeTGtKy_F-36" value="" style="rhombus;whiteSpace=wrap;html=1;" vertex="1" parent="1">
          <mxGeometry x="920" y="27.5" width="150" height="142.5" as="geometry" />
        </mxCell>
        <mxCell id="OF2-15ma23gHeTGtKy_F-37" value="" style="edgeStyle=entityRelationEdgeStyle;fontSize=12;html=1;endArrow=ERmandOne;startArrow=ERmandOne;rounded=0;exitX=1;exitY=0.5;exitDx=0;exitDy=0;entryX=0;entryY=0.5;entryDx=0;entryDy=0;" edge="1" parent="1" source="OF2-15ma23gHeTGtKy_F-36" target="OF2-15ma23gHeTGtKy_F-24">
          <mxGeometry width="100" height="100" relative="1" as="geometry">
            <mxPoint x="1110" y="104.5" as="sourcePoint" />
            <mxPoint x="1310" y="99" as="targetPoint" />
          </mxGeometry>
        </mxCell>
        <mxCell id="OF2-15ma23gHeTGtKy_F-38" value="" style="edgeStyle=entityRelationEdgeStyle;fontSize=12;html=1;endArrow=ERmany;startArrow=ERmany;rounded=0;exitX=1;exitY=0.75;exitDx=0;exitDy=0;" edge="1" parent="1" source="OF2-15ma23gHeTGtKy_F-40" target="OF2-15ma23gHeTGtKy_F-21">
          <mxGeometry width="100" height="100" relative="1" as="geometry">
            <mxPoint x="410" y="360" as="sourcePoint" />
            <mxPoint x="510" y="260" as="targetPoint" />
          </mxGeometry>
        </mxCell>
        <mxCell id="OF2-15ma23gHeTGtKy_F-39" value="" style="edgeStyle=entityRelationEdgeStyle;fontSize=12;html=1;endArrow=ERmany;startArrow=ERmany;rounded=0;exitX=1;exitY=0.75;exitDx=0;exitDy=0;" edge="1" parent="1" source="OF2-15ma23gHeTGtKy_F-2" target="OF2-15ma23gHeTGtKy_F-40">
          <mxGeometry width="100" height="100" relative="1" as="geometry">
            <mxPoint x="160" y="125" as="sourcePoint" />
            <mxPoint x="580" y="330" as="targetPoint" />
          </mxGeometry>
        </mxCell>
        <mxCell id="OF2-15ma23gHeTGtKy_F-40" value="" style="rhombus;whiteSpace=wrap;html=1;" vertex="1" parent="1">
          <mxGeometry x="310" y="200" width="115" height="110" as="geometry" />
        </mxCell>
        <mxCell id="OF2-15ma23gHeTGtKy_F-41" value="" style="edgeStyle=entityRelationEdgeStyle;fontSize=12;html=1;endArrow=ERmany;rounded=0;exitX=1;exitY=0.5;exitDx=0;exitDy=0;entryX=0.608;entryY=-0.017;entryDx=0;entryDy=0;entryPerimeter=0;" edge="1" parent="1" source="OF2-15ma23gHeTGtKy_F-43" target="OF2-15ma23gHeTGtKy_F-22">
          <mxGeometry width="100" height="100" relative="1" as="geometry">
            <mxPoint x="1310" y="330" as="sourcePoint" />
            <mxPoint x="1410" y="230" as="targetPoint" />
          </mxGeometry>
        </mxCell>
        <mxCell id="OF2-15ma23gHeTGtKy_F-42" value="" style="edgeStyle=entityRelationEdgeStyle;fontSize=12;html=1;endArrow=ERmany;rounded=0;exitX=1;exitY=0.5;exitDx=0;exitDy=0;entryX=0.608;entryY=-0.017;entryDx=0;entryDy=0;entryPerimeter=0;" edge="1" parent="1" source="OF2-15ma23gHeTGtKy_F-24" target="OF2-15ma23gHeTGtKy_F-43">
          <mxGeometry width="100" height="100" relative="1" as="geometry">
            <mxPoint x="1410" y="99" as="sourcePoint" />
            <mxPoint x="1473" y="509" as="targetPoint" />
          </mxGeometry>
        </mxCell>
        <mxCell id="OF2-15ma23gHeTGtKy_F-43" value="" style="rhombus;whiteSpace=wrap;html=1;" vertex="1" parent="1">
          <mxGeometry x="1390" y="240" width="100" height="100" as="geometry" />
        </mxCell>
        <mxCell id="OF2-15ma23gHeTGtKy_F-44" value="" style="edgeStyle=entityRelationEdgeStyle;fontSize=12;html=1;endArrow=ERmany;rounded=0;exitX=0.367;exitY=0.971;exitDx=0;exitDy=0;exitPerimeter=0;entryX=0.558;entryY=0;entryDx=0;entryDy=0;entryPerimeter=0;" edge="1" parent="1" source="OF2-15ma23gHeTGtKy_F-46" target="OF2-15ma23gHeTGtKy_F-23">
          <mxGeometry width="100" height="100" relative="1" as="geometry">
            <mxPoint x="1250" y="410" as="sourcePoint" />
            <mxPoint x="1350" y="310" as="targetPoint" />
          </mxGeometry>
        </mxCell>
        <mxCell id="OF2-15ma23gHeTGtKy_F-45" value="" style="edgeStyle=entityRelationEdgeStyle;fontSize=12;html=1;endArrow=ERmany;rounded=0;exitX=0.367;exitY=0.971;exitDx=0;exitDy=0;exitPerimeter=0;entryX=0.558;entryY=0;entryDx=0;entryDy=0;entryPerimeter=0;" edge="1" parent="1" source="OF2-15ma23gHeTGtKy_F-24" target="OF2-15ma23gHeTGtKy_F-46">
          <mxGeometry width="100" height="100" relative="1" as="geometry">
            <mxPoint x="1334" y="127" as="sourcePoint" />
            <mxPoint x="1237" y="500" as="targetPoint" />
          </mxGeometry>
        </mxCell>
        <mxCell id="OF2-15ma23gHeTGtKy_F-46" value="" style="rhombus;whiteSpace=wrap;html=1;" vertex="1" parent="1">
          <mxGeometry x="1220" y="270" width="110" height="110" as="geometry" />
        </mxCell>
      </root>
    </mxGraphModel>
  </diagram>
</mxfile>
